<svg width="52" height="51" viewBox="0 0 52 51" fill="none" xmlns="http://www.w3.org/2000/svg">
<path d="M25.847 17.0714C21.0997 17.0714 17.2255 20.8761 17.2255 25.5383C17.2255 30.2004 21.0997 34.0051 25.847 34.0051C30.5943 34.0051 34.4685 30.2004 34.4685 25.5383C34.4685 20.8761 30.5943 17.0714 25.847 17.0714ZM51.705 25.5383C51.705 22.0321 51.7374 18.5577 51.5369 15.0579C51.3364 10.9928 50.3921 7.38497 47.3652 4.41235C44.3318 1.43338 40.6646 0.512376 36.5252 0.315472C32.9551 0.118568 29.4172 0.150327 25.8535 0.150327C22.2833 0.150327 18.7454 0.118568 15.1817 0.315472C11.0424 0.512376 7.36868 1.43973 4.34178 4.41235C1.30841 7.39132 0.370585 10.9928 0.170085 15.0579C-0.030415 18.564 0.00192379 22.0385 0.00192379 25.5383C0.00192379 29.0381 -0.030415 32.5188 0.170085 36.0186C0.370585 40.0838 1.31487 43.6916 4.34178 46.6642C7.37515 49.6431 11.0424 50.5642 15.1817 50.7611C18.7519 50.958 22.2898 50.9262 25.8535 50.9262C29.4237 50.9262 32.9615 50.958 36.5252 50.7611C40.6646 50.5642 44.3383 49.6368 47.3652 46.6642C50.3986 43.6852 51.3364 40.0838 51.5369 36.0186C51.7438 32.5188 51.705 29.0444 51.705 25.5383ZM25.847 38.5657C18.5061 38.5657 12.5817 32.7475 12.5817 25.5383C12.5817 18.329 18.5061 12.5108 25.847 12.5108C33.1879 12.5108 39.1123 18.329 39.1123 25.5383C39.1123 32.7475 33.1879 38.5657 25.847 38.5657ZM39.6556 15.0198C37.9417 15.0198 36.5576 13.6605 36.5576 11.9773C36.5576 10.2941 37.9417 8.93479 39.6556 8.93479C41.3696 8.93479 42.7537 10.2941 42.7537 11.9773C42.7542 12.377 42.6744 12.7728 42.5189 13.1422C42.3634 13.5115 42.1352 13.8471 41.8474 14.1298C41.5596 14.4124 41.2179 14.6365 40.8418 14.7892C40.4657 14.9419 40.0626 15.0203 39.6556 15.0198Z" fill="#FFFDF7"/>
</svg>
