<svg width="56" height="55" viewBox="0 0 56 55" fill="none" xmlns="http://www.w3.org/2000/svg">
<path d="M46.6075 17.2356C45.2481 17.8315 43.7795 18.2368 42.2016 18.4513C43.8523 17.4978 44.9811 16.1032 45.5879 14.2676C44.0101 15.1735 42.3837 15.7814 40.7087 16.0913C39.228 14.5179 37.3709 13.7312 35.1377 13.7312C33.0258 13.7312 31.2234 14.4643 29.7305 15.9304C28.2376 17.3965 27.4911 19.1665 27.4911 21.2405C27.4911 21.9318 27.5518 22.504 27.6732 22.9569C24.5417 22.79 21.6045 22.0153 18.8615 20.6326C16.1184 19.2499 13.788 17.4024 11.8703 15.0901C11.1664 16.282 10.8144 17.5455 10.8144 18.8804C10.8144 21.5981 11.9189 23.684 14.1279 25.1382C12.987 25.1143 11.7732 24.8044 10.4867 24.2084V24.28C10.4867 26.0679 11.0935 27.6591 12.3073 29.0537C13.521 30.4483 15.0139 31.3125 16.786 31.6462C16.082 31.8369 15.463 31.9323 14.929 31.9323C14.6134 31.9323 14.14 31.8846 13.5089 31.7892C14.0187 33.2911 14.9229 34.5307 16.2216 35.5081C17.5203 36.4855 18.995 36.9861 20.6457 37.01C17.8298 39.1555 14.6619 40.2282 11.1421 40.2282C10.511 40.2282 9.90409 40.1925 9.3215 40.1209C12.9142 42.3618 16.8224 43.4822 21.0462 43.4822C23.765 43.4822 26.3138 43.0591 28.6927 42.2128C31.0716 41.3665 33.1107 40.2342 34.81 38.8158C36.5092 37.3973 37.9717 35.7644 39.1976 33.9169C40.4235 32.0693 41.3338 30.1384 41.9285 28.124C42.5233 26.1096 42.8206 24.1012 42.8206 22.0987C42.8206 21.6696 42.8085 21.3478 42.7842 21.1332C44.3135 20.0605 45.5879 18.7612 46.6075 17.2356ZM55.929 10.2984V44.6265C55.929 47.4633 54.9034 49.889 52.8521 51.9033C50.8009 53.9177 48.331 54.9249 45.4423 54.9249H10.4867C7.59799 54.9249 5.12804 53.9177 3.07682 51.9033C1.02561 49.889 0 47.4633 0 44.6265V10.2984C0 7.46159 1.02561 5.03598 3.07682 3.02159C5.12804 1.0072 7.59799 0 10.4867 0H45.4423C48.331 0 50.8009 1.0072 52.8521 3.02159C54.9034 5.03598 55.929 7.46159 55.929 10.2984Z" fill="white"/>
</svg>
